<svg width="160" height="50" viewBox="0 0 160 50" fill="none" xmlns="http://www.w3.org/2000/svg">
<path d="M57.43 8.542C57.43 8.03933 57.612 7.62333 57.976 7.294C58.3573 6.96467 58.8167 6.8 59.354 6.8H66.452C67.7347 6.8 68.87 7.06 69.858 7.58C70.846 8.08267 71.6087 8.79333 72.146 9.712C72.7007 10.6307 72.978 11.6967 72.978 12.91C72.978 14.1407 72.7093 15.224 72.172 16.16C71.6347 17.0787 70.872 17.7893 69.884 18.292C68.9133 18.7947 67.7693 19.046 66.452 19.046H61.252V22.478C61.252 23.3793 60.9227 24.064 60.264 24.532C59.6227 25 58.678 25.234 57.43 25.234V8.542ZM66.452 15.744C67.3187 15.744 67.986 15.5013 68.454 15.016C68.922 14.5133 69.156 13.8027 69.156 12.884C69.156 12 68.922 11.3153 68.454 10.83C67.986 10.3447 67.3187 10.102 66.452 10.102H61.252V15.744H66.452ZM74.4163 9.27C74.4163 8.42067 74.7197 7.762 75.3263 7.294C75.9503 6.80867 76.8343 6.566 77.9783 6.566V13.3C77.7183 13.5773 77.5017 13.872 77.3283 14.184L77.5103 14.288C78.6717 12.6067 80.1797 11.766 82.0343 11.766C82.901 11.766 83.6637 11.9653 84.3223 12.364C84.9983 12.7627 85.527 13.3173 85.9083 14.028C86.2897 14.7213 86.4803 15.5013 86.4803 16.368V23.154C86.4803 23.8993 86.1857 24.4367 85.5963 24.766C85.007 25.078 84.1143 25.234 82.9183 25.234V16.914C82.9183 16.3247 82.7277 15.8307 82.3463 15.432C81.9823 15.0333 81.4623 14.834 80.7863 14.834C79.9543 14.834 79.2783 15.1027 78.7583 15.64C78.2383 16.1773 77.9783 16.8533 77.9783 17.668V23.154C77.9783 23.8993 77.6837 24.4367 77.0943 24.766C76.505 25.078 75.6123 25.234 74.4163 25.234V9.27ZM94.0733 25.234C92.9293 25.234 91.8893 25.026 90.9533 24.61C90.0173 24.194 89.2807 23.622 88.7433 22.894C88.206 22.1487 87.9373 21.308 87.9373 20.372V16.914C87.9373 15.9607 88.1973 15.094 88.7173 14.314C89.2373 13.5167 89.9653 12.8927 90.9013 12.442C91.8373 11.9913 92.8947 11.766 94.0733 11.766C95.252 11.766 96.3093 11.9913 97.2453 12.442C98.1813 12.8927 98.9093 13.5167 99.4293 14.314C99.9493 15.094 100.209 15.9607 100.209 16.914V20.372C100.209 21.308 99.9407 22.1487 99.4033 22.894C98.866 23.622 98.1293 24.194 97.1933 24.61C96.2573 25.026 95.2173 25.234 94.0733 25.234ZM94.0733 22.166C94.888 22.166 95.5207 21.984 95.9713 21.62C96.422 21.256 96.6473 20.7533 96.6473 20.112V17.096C96.6473 16.42 96.4133 15.874 95.9453 15.458C95.4947 15.042 94.8707 14.834 94.0733 14.834C93.276 14.834 92.6433 15.042 92.1753 15.458C91.7247 15.874 91.4993 16.42 91.4993 17.096V20.112C91.4993 20.7533 91.7247 21.256 92.1753 21.62C92.626 21.984 93.2587 22.166 94.0733 22.166ZM107.907 25.234C106.434 25.234 105.351 24.8093 104.657 23.96C103.964 23.1107 103.617 22.0187 103.617 20.684V14.626H100.861C100.861 13.742 101.026 13.0833 101.355 12.65C101.685 12.2167 102.118 12 102.655 12H103.669V9.946C103.669 9.20067 103.955 8.672 104.527 8.36C105.099 8.03067 105.966 7.866 107.127 7.866V12H110.585C110.585 12.936 110.412 13.612 110.065 14.028C109.719 14.4267 109.147 14.626 108.349 14.626H107.179V20.554C107.179 21.126 107.292 21.542 107.517 21.802C107.743 22.0447 108.133 22.166 108.687 22.166C109.294 22.166 109.918 21.9927 110.559 21.646C110.75 21.8193 110.897 22.036 111.001 22.296C111.123 22.556 111.183 22.816 111.183 23.076C111.183 23.4227 111.062 23.7607 110.819 24.09C110.577 24.4193 110.204 24.6967 109.701 24.922C109.216 25.13 108.618 25.234 107.907 25.234ZM118.474 25.234C117.33 25.234 116.29 25.026 115.354 24.61C114.418 24.194 113.681 23.622 113.144 22.894C112.606 22.1487 112.338 21.308 112.338 20.372V16.914C112.338 15.9607 112.598 15.094 113.118 14.314C113.638 13.5167 114.366 12.8927 115.302 12.442C116.238 11.9913 117.295 11.766 118.474 11.766C119.652 11.766 120.71 11.9913 121.646 12.442C122.582 12.8927 123.31 13.5167 123.83 14.314C124.35 15.094 124.61 15.9607 124.61 16.914V20.372C124.61 21.308 124.341 22.1487 123.804 22.894C123.266 23.622 122.53 24.194 121.594 24.61C120.658 25.026 119.618 25.234 118.474 25.234ZM118.474 22.166C119.288 22.166 119.921 21.984 120.372 21.62C120.822 21.256 121.048 20.7533 121.048 20.112V17.096C121.048 16.42 120.814 15.874 120.346 15.458C119.895 15.042 119.271 14.834 118.474 14.834C117.676 14.834 117.044 15.042 116.576 15.458C116.125 15.874 115.9 16.42 115.9 17.096V20.112C115.9 20.7533 116.125 21.256 116.576 21.62C117.026 21.984 117.659 22.166 118.474 22.166ZM57.43 29.542C57.43 29.0393 57.612 28.6233 57.976 28.294C58.3573 27.9647 58.8167 27.8 59.354 27.8H66.192C68.1333 27.8 69.624 28.3027 70.664 29.308C71.7213 30.296 72.25 31.7087 72.25 33.546C72.25 34.5687 72.042 35.4267 71.626 36.12C71.2273 36.8133 70.6033 37.3593 69.754 37.758V37.862C71.262 38.538 72.016 39.812 72.016 41.684V43.478C72.016 44.3793 71.6867 45.064 71.028 45.532C70.3867 46 69.442 46.234 68.194 46.234V41.814C68.194 40.9473 68.0207 40.3147 67.674 39.916C67.3447 39.5 66.8333 39.292 66.14 39.292H61.2V43.478C61.2 44.3793 60.8793 45.064 60.238 45.532C59.5967 46 58.6607 46.234 57.43 46.234V29.542ZM65.984 36.042C66.7813 36.042 67.388 35.8253 67.804 35.392C68.22 34.9587 68.428 34.3347 68.428 33.52C68.428 32.6707 68.2287 32.0467 67.83 31.648C67.4487 31.2493 66.8333 31.05 65.984 31.05H61.2V36.042H65.984ZM80.0118 46.234C78.9371 46.234 77.9405 46.0173 77.0218 45.584C76.1205 45.1507 75.4011 44.5613 74.8638 43.816C74.3265 43.0707 74.0578 42.2387 74.0578 41.32V37.992C74.0578 37.0213 74.3265 36.1373 74.8638 35.34C75.4185 34.5253 76.1551 33.8927 77.0738 33.442C77.9925 32.9913 78.9805 32.766 80.0378 32.766C81.0778 32.766 82.0311 32.9827 82.8978 33.416C83.7818 33.832 84.4751 34.43 84.9778 35.21C85.4805 35.9727 85.7318 36.8393 85.7318 37.81V39.214C85.7318 39.63 85.5758 39.9853 85.2638 40.28C84.9518 40.5573 84.5531 40.696 84.0678 40.696H77.5158V41.06C77.5158 41.7533 77.7238 42.3253 78.1398 42.776C78.5731 43.2093 79.2058 43.426 80.0378 43.426C80.8525 43.426 81.4505 43.2527 81.8318 42.906C82.2131 42.542 82.4038 42.0913 82.4038 41.554C82.7505 41.5193 83.0105 41.502 83.1838 41.502C83.8945 41.502 84.4405 41.6493 84.8218 41.944C85.2031 42.2387 85.3938 42.672 85.3938 43.244C85.3938 43.712 85.1598 44.18 84.6918 44.648C84.2238 45.116 83.5738 45.4973 82.7418 45.792C81.9271 46.0867 81.0171 46.234 80.0118 46.234ZM82.5078 38.174V37.81C82.5078 37.1167 82.2738 36.5707 81.8058 36.172C81.3551 35.756 80.7571 35.548 80.0118 35.548C79.2665 35.548 78.6598 35.756 78.1918 36.172C77.7411 36.5707 77.5158 37.1167 77.5158 37.81V38.174H82.5078ZM88.0765 35.47C88.0765 34.6033 88.3538 33.936 88.9085 33.468C89.4632 33 90.3038 32.766 91.4305 32.766V34.3C91.1705 34.5773 90.9538 34.872 90.7805 35.184L90.9625 35.288C91.5172 34.456 92.0892 33.832 92.6785 33.416C93.2852 32.9827 94.0045 32.766 94.8365 32.766C96.3098 32.766 97.3325 33.5027 97.9045 34.976C98.3378 34.2827 98.8925 33.7453 99.5685 33.364C100.244 32.9653 101.007 32.766 101.856 32.766C103.035 32.766 103.971 33.1993 104.664 34.066C105.375 34.9327 105.73 36.0333 105.73 37.368V44.154C105.73 44.8993 105.444 45.4367 104.872 45.766C104.3 46.078 103.416 46.234 102.22 46.234V37.68C102.22 37.0907 102.09 36.6227 101.83 36.276C101.57 35.9293 101.163 35.756 100.608 35.756C100.054 35.756 99.5858 35.9553 99.2045 36.354C98.8232 36.7353 98.6325 37.3853 98.6325 38.304V44.154C98.6325 44.8993 98.3465 45.4367 97.7745 45.766C97.2198 46.078 96.3532 46.234 95.1745 46.234V37.68C95.1745 37.0907 95.0445 36.6227 94.7845 36.276C94.5245 35.9293 94.1258 35.756 93.5885 35.756C92.2538 35.756 91.5865 36.6487 91.5865 38.434V44.154C91.5865 44.8993 91.3005 45.4367 90.7285 45.766C90.1565 46.078 89.2725 46.234 88.0765 46.234V35.47ZM113.421 46.234C112.277 46.234 111.237 46.026 110.301 45.61C109.365 45.194 108.628 44.622 108.091 43.894C107.554 43.1487 107.285 42.308 107.285 41.372V37.914C107.285 36.9607 107.545 36.094 108.065 35.314C108.585 34.5167 109.313 33.8927 110.249 33.442C111.185 32.9913 112.242 32.766 113.421 32.766C114.6 32.766 115.657 32.9913 116.593 33.442C117.529 33.8927 118.257 34.5167 118.777 35.314C119.297 36.094 119.557 36.9607 119.557 37.914V41.372C119.557 42.308 119.288 43.1487 118.751 43.894C118.214 44.622 117.477 45.194 116.541 45.61C115.605 46.026 114.565 46.234 113.421 46.234ZM113.421 43.166C114.236 43.166 114.868 42.984 115.319 42.62C115.77 42.256 115.995 41.7533 115.995 41.112V38.096C115.995 37.42 115.761 36.874 115.293 36.458C114.842 36.042 114.218 35.834 113.421 35.834C112.624 35.834 111.991 36.042 111.523 36.458C111.072 36.874 110.847 37.42 110.847 38.096V41.112C110.847 41.7533 111.072 42.256 111.523 42.62C111.974 42.984 112.606 43.166 113.421 43.166ZM126.176 46.234C125.708 46.234 125.3 46.13 124.954 45.922C124.624 45.714 124.39 45.428 124.252 45.064L119.676 33.052C119.797 32.9653 120.022 32.896 120.352 32.844C120.698 32.792 120.984 32.766 121.21 32.766C121.764 32.766 122.258 32.8787 122.692 33.104C123.142 33.312 123.437 33.6327 123.576 34.066L125.994 41.762L125.552 43.036L125.786 43.114L128.776 34.066C128.914 33.6327 129.2 33.312 129.634 33.104C130.084 32.8787 130.587 32.766 131.142 32.766C131.367 32.766 131.644 32.792 131.974 32.844C132.32 32.896 132.554 32.9653 132.676 33.052L128.1 45.064C127.961 45.428 127.718 45.714 127.372 45.922C127.042 46.13 126.644 46.234 126.176 46.234ZM139.147 46.234C138.072 46.234 137.075 46.0173 136.157 45.584C135.255 45.1507 134.536 44.5613 133.999 43.816C133.461 43.0707 133.193 42.2387 133.193 41.32V37.992C133.193 37.0213 133.461 36.1373 133.999 35.34C134.553 34.5253 135.29 33.8927 136.209 33.442C137.127 32.9913 138.115 32.766 139.173 32.766C140.213 32.766 141.166 32.9827 142.033 33.416C142.917 33.832 143.61 34.43 144.113 35.21C144.615 35.9727 144.867 36.8393 144.867 37.81V39.214C144.867 39.63 144.711 39.9853 144.399 40.28C144.087 40.5573 143.688 40.696 143.203 40.696H136.651V41.06C136.651 41.7533 136.859 42.3253 137.275 42.776C137.708 43.2093 138.341 43.426 139.173 43.426C139.987 43.426 140.585 43.2527 140.967 42.906C141.348 42.542 141.539 42.0913 141.539 41.554C141.885 41.5193 142.145 41.502 142.319 41.502C143.029 41.502 143.575 41.6493 143.957 41.944C144.338 42.2387 144.529 42.672 144.529 43.244C144.529 43.712 144.295 44.18 143.827 44.648C143.359 45.116 142.709 45.4973 141.877 45.792C141.062 46.0867 140.152 46.234 139.147 46.234ZM141.643 38.174V37.81C141.643 37.1167 141.409 36.5707 140.941 36.172C140.49 35.756 139.892 35.548 139.147 35.548C138.401 35.548 137.795 35.756 137.327 36.172C136.876 36.5707 136.651 37.1167 136.651 37.81V38.174H141.643ZM152.697 46.234C150.929 46.234 149.534 45.9393 148.511 45.35C147.489 44.7433 146.977 43.9373 146.977 42.932C146.977 42.4813 147.168 42.1 147.549 41.788C147.948 41.476 148.581 41.32 149.447 41.32C149.586 42.0133 149.933 42.5593 150.487 42.958C151.042 43.3393 151.692 43.53 152.437 43.53C153.304 43.53 153.971 43.426 154.439 43.218C154.925 43.01 155.167 42.7067 155.167 42.308C155.167 41.9613 154.977 41.658 154.595 41.398C154.214 41.138 153.451 40.8693 152.307 40.592C150.973 40.28 149.933 39.968 149.187 39.656C148.459 39.3267 147.922 38.9193 147.575 38.434C147.229 37.9487 147.055 37.3073 147.055 36.51C147.055 35.3833 147.523 34.482 148.459 33.806C149.413 33.1127 150.739 32.766 152.437 32.766C154.101 32.766 155.453 33.052 156.493 33.624C157.533 34.196 158.053 34.9587 158.053 35.912C158.053 36.3973 157.871 36.7527 157.507 36.978C157.143 37.186 156.537 37.2987 155.687 37.316C155.462 36.6573 155.115 36.172 154.647 35.86C154.197 35.5307 153.547 35.366 152.697 35.366C152.091 35.366 151.553 35.47 151.085 35.678C150.617 35.886 150.383 36.1373 150.383 36.432C150.383 36.7613 150.574 37.0213 150.955 37.212C151.354 37.4027 152.013 37.5933 152.931 37.784C154.925 38.2173 156.355 38.7893 157.221 39.5C158.105 40.2107 158.547 41.1727 158.547 42.386C158.547 43.1313 158.313 43.7987 157.845 44.388C157.377 44.9773 156.701 45.4367 155.817 45.766C154.933 46.078 153.893 46.234 152.697 46.234Z" fill="url(#paint0_linear_7_2)"/>
<g clip-path="url(#clip0_7_2)">
<mask id="mask0_7_2" style="mask-type:luminance" maskUnits="userSpaceOnUse" x="0" y="0" width="50" height="50">
<path d="M39.5 0H10.5C4.70101 0 0 4.70101 0 10.5V39.5C0 45.299 4.70101 50 10.5 50H39.5C45.299 50 50 45.299 50 39.5V10.5C50 4.70101 45.299 0 39.5 0Z" fill="white"/>
</mask>
<g mask="url(#mask0_7_2)">
<path d="M39.5 0H10.5C4.70101 0 0 4.70101 0 10.5V39.5C0 45.299 4.70101 50 10.5 50H39.5C45.299 50 50 45.299 50 39.5V10.5C50 4.70101 45.299 0 39.5 0Z" fill="#222222"/>
<path d="M13.2181 23.966C14.6578 22.0114 17.8422 22.0114 19.2818 23.966L38.3864 49.9047C39.9925 52.0855 38.2582 55 35.3546 55H-2.85458C-5.75821 55 -7.49256 52.0855 -5.88646 49.9047L13.2181 23.966Z" fill="url(#paint1_linear_7_2)"/>
<path d="M9.75 18C12.3734 18 14.5 15.8734 14.5 13.25C14.5 10.6267 12.3734 8.5 9.75 8.5C7.12665 8.5 5 10.6267 5 13.25C5 15.8734 7.12665 18 9.75 18Z" fill="#FEA815"/>
<mask id="mask1_7_2" style="mask-type:luminance" maskUnits="userSpaceOnUse" x="23" y="14" width="23" height="23">
<path d="M23.9338 17.4032L43.244 14.6893L45.9579 33.9995L26.6476 36.7134L23.9338 17.4032Z" fill="white"/>
</mask>
<g mask="url(#mask1_7_2)">
<path d="M24.7871 20.9074L27.5375 17.2575C27.7396 16.9883 28.032 16.8272 28.3409 16.7838C28.6498 16.7404 28.9752 16.8147 29.2441 17.0176L44.8648 28.7887C45.4025 29.1939 45.5099 29.958 45.1047 30.4953L42.3543 34.1452C42.1517 34.4141 41.8594 34.5752 41.5509 34.6185C41.242 34.6619 40.9165 34.5877 40.6477 34.3851L25.0269 22.6136C24.4893 22.2092 24.3818 21.4447 24.7871 20.9074ZM30.7657 24.2681L32.416 22.0782L28.6908 19.2711L27.0406 21.461L30.7657 24.2681Z" fill="url(#paint2_linear_7_2)"/>
</g>
<path d="M32.4572 17.821L31.4342 16.2481L29.7432 15.6274L31.1977 14.5646L31.7475 12.7707L32.7705 14.3436L34.4615 14.9643L33.007 16.027L32.4572 17.821ZM40.0079 20.1933L38.3033 17.5718L35.4845 16.5372L37.909 14.7657L38.825 11.776L40.5296 14.3974L43.3484 15.432L40.9239 17.2035L40.0079 20.1933Z" fill="#FEA815"/>
<path d="M36.3898 12.6231L34.9101 10.475L32.4368 9.6443L34.5853 8.16405L35.4156 5.69125L36.8954 7.8394L39.3687 8.67005L37.2201 10.1503L36.3898 12.6231Z" fill="#FEA815"/>
</g>
<path d="M39.5 1H10.5C5.25329 1 1 5.25329 1 10.5V39.5C1 44.7467 5.25329 49 10.5 49H39.5C44.7467 49 49 44.7467 49 39.5V10.5C49 5.25329 44.7467 1 39.5 1Z" stroke="url(#paint3_linear_7_2)" stroke-width="2"/>
</g>
<defs>
<linearGradient id="paint0_linear_7_2" x1="58.5" y1="7.81818" x2="159.093" y2="47.3514" gradientUnits="userSpaceOnUse">
<stop stop-color="#3D4CCD"/>
<stop offset="0.418269" stop-color="#6F4AA1"/>
<stop offset="0.663462" stop-color="#EF442F"/>
<stop offset="1" stop-color="#FAC000"/>
</linearGradient>
<linearGradient id="paint1_linear_7_2" x1="16.25" y1="22.5" x2="16.25" y2="55" gradientUnits="userSpaceOnUse">
<stop stop-color="#FD4322"/>
<stop offset="1" stop-color="#054FFF"/>
</linearGradient>
<linearGradient id="paint2_linear_7_2" x1="34.9459" y1="16.7719" x2="34.9459" y2="34.6305" gradientUnits="userSpaceOnUse">
<stop stop-color="#FD4322"/>
<stop offset="1" stop-color="#054FFF"/>
</linearGradient>
<linearGradient id="paint3_linear_7_2" x1="25" y1="0" x2="25" y2="50" gradientUnits="userSpaceOnUse">
<stop stop-color="#3C4DCE"/>
<stop offset="1" stop-color="#FB4324"/>
</linearGradient>
<clipPath id="clip0_7_2">
<rect width="50" height="50" fill="white"/>
</clipPath>
</defs>
</svg>
